<svg width="24" height="24" viewBox="0 0 24 24" fill="none" xmlns="http://www.w3.org/2000/svg">
<path fill-rule="evenodd" clip-rule="evenodd" d="M4 0C1.79089 0 0 1.79083 0 4V20C0 22.2092 1.79089 24 4 24H20C22.2091 24 24 22.2092 24 20V4C24 1.79083 22.2091 0 20 0H4ZM4.70618 4.08118C5.03821 3.74908 5.48865 3.5625 5.95837 3.5625C6.42798 3.5625 6.87842 3.74908 7.21045 4.08118C7.5426 4.41327 7.72913 4.86371 7.72913 5.33331C7.72913 5.80298 7.5426 6.25342 7.21045 6.58551C6.87842 6.9176 6.42798 7.10419 5.95837 7.10419C5.48865 7.10419 5.03821 6.9176 4.70618 6.58551C4.37402 6.25342 4.1875 5.80298 4.1875 5.33331C4.1875 4.86371 4.37402 4.41327 4.70618 4.08118ZM4.21802 8.59302C4.23755 8.57349 4.26404 8.5625 4.29163 8.5625H7.625C7.646 8.5625 7.66638 8.56885 7.68359 8.58057C7.68896 8.58423 7.69397 8.58838 7.69861 8.59302C7.70984 8.60419 7.71826 8.61768 7.72339 8.63232C7.72717 8.64325 7.72913 8.65485 7.72913 8.66669V19.5C7.72913 19.5276 7.71814 19.5541 7.69861 19.5737C7.67908 19.5932 7.65259 19.6042 7.625 19.6042H4.29163C4.23413 19.6042 4.1875 19.5575 4.1875 19.5V8.66669C4.1875 8.65057 4.19116 8.63489 4.19812 8.62073C4.20312 8.61053 4.20984 8.6012 4.21802 8.59302ZM9.63464 8.59302C9.65417 8.57349 9.68066 8.5625 9.70837 8.5625H13.0416C13.0537 8.5625 13.0656 8.56458 13.0768 8.56854C13.0912 8.57373 13.1044 8.58203 13.1154 8.59302C13.1349 8.61255 13.1459 8.63904 13.1459 8.66669V9.81836L14.2341 9.35168C14.8091 9.10577 15.4189 8.95166 16.0416 8.89502C18.0542 8.71252 19.8125 10.2942 19.8125 12.3167V19.5C19.8125 19.5276 19.8015 19.5541 19.782 19.5737C19.7625 19.5932 19.736 19.6042 19.7084 19.6042H16.375C16.3175 19.6042 16.2709 19.5575 16.2709 19.5V13.6667C16.2709 13.2523 16.1062 12.8549 15.8132 12.5618C15.5201 12.2688 15.1227 12.1042 14.7084 12.1042C14.2939 12.1042 13.8965 12.2688 13.6035 12.5618C13.3104 12.8549 13.1459 13.2523 13.1459 13.6667V19.5C13.1459 19.5158 13.1423 19.5312 13.1356 19.5452C13.1306 19.5557 13.1238 19.5653 13.1154 19.5737C13.0958 19.5932 13.0693 19.6042 13.0416 19.6042H9.70837C9.65088 19.6042 9.60413 19.5575 9.60413 19.5V8.66669C9.60413 8.65509 9.60608 8.64374 9.60974 8.633C9.61487 8.61804 9.62329 8.60437 9.63464 8.59302Z" fill="white"/>
</svg>
