<svg width="19" height="24" viewBox="0 0 19 24" fill="none" xmlns="http://www.w3.org/2000/svg">
<path d="M17.2727 9.42857C17.2727 7.38262 16.4538 5.42046 14.9961 3.97375C13.5385 2.52704 11.5615 1.71429 9.5 1.71429C7.43854 1.71429 5.46152 2.52704 4.00385 3.97375C2.54618 5.42046 1.72727 7.38262 1.72727 9.42857C1.72727 12.5931 4.27845 16.7177 9.5 21.6583C14.7215 16.7177 17.2727 12.5931 17.2727 9.42857ZM9.5 24C3.16609 18.2863 0 13.428 0 9.42857C0 6.92796 1.00089 4.52976 2.78249 2.76156C4.56408 0.993365 6.98044 0 9.5 0C12.0196 0 14.4359 0.993365 16.2175 2.76156C17.9991 4.52976 19 6.92796 19 9.42857C19 13.428 15.8339 18.2863 9.5 24Z" fill="#212121"/>
<path d="M9.50007 12.0002C10.1872 12.0002 10.8462 11.7293 11.3321 11.2471C11.818 10.7648 12.091 10.1108 12.091 9.42878C12.091 8.7468 11.818 8.09274 11.3321 7.61051C10.8462 7.12827 10.1872 6.85735 9.50007 6.85735C8.81291 6.85735 8.15391 7.12827 7.66802 7.61051C7.18213 8.09274 6.90916 8.7468 6.90916 9.42878C6.90916 10.1108 7.18213 10.7648 7.66802 11.2471C8.15391 11.7293 8.81291 12.0002 9.50007 12.0002ZM9.50007 13.7145C8.35481 13.7145 7.25647 13.263 6.44665 12.4592C5.63683 11.6555 5.18188 10.5654 5.18188 9.42878C5.18188 8.29214 5.63683 7.20205 6.44665 6.39832C7.25647 5.5946 8.35481 5.14307 9.50007 5.14307C10.6453 5.14307 11.7437 5.5946 12.5535 6.39832C13.3633 7.20205 13.8182 8.29214 13.8182 9.42878C13.8182 10.5654 13.3633 11.6555 12.5535 12.4592C11.7437 13.263 10.6453 13.7145 9.50007 13.7145Z" fill="#212121"/>
</svg>
