<svg width="24" height="24" viewBox="0 0 24 24" fill="none" xmlns="http://www.w3.org/2000/svg">
<path fill-rule="evenodd" clip-rule="evenodd" d="M4 0C1.79086 0 0 1.79086 0 4V20C0 22.2091 1.79086 24 4 24H20C22.2091 24 24 22.2091 24 20V4C24 1.79086 22.2091 0 20 0H4ZM3 12C3 8.70037 3 7.05013 4.0255 6.0255C5.05013 5 6.70038 5 10 5H13.5C16.7996 5 18.4499 5 19.4745 6.0255C20.5 7.05013 20.5 8.70037 20.5 12C20.5 15.2996 20.5 16.9499 19.4745 17.9745C18.4499 19 16.7996 19 13.5 19H10C6.70038 19 5.05013 19 4.0255 17.9745C3 16.9499 3 15.2996 3 12ZM17.6533 8.55939C17.669 8.38612 17.6153 8.21369 17.504 8.08C17.3927 7.94625 17.2337 7.86217 17.0604 7.84625C16.8872 7.83033 16.7147 7.88388 16.5809 7.99512L14.6918 9.57012C13.8754 10.25 13.3084 10.7208 12.8298 11.0288C12.3669 11.3271 12.0528 11.4269 11.7509 11.4269C11.449 11.4269 11.1349 11.3263 10.672 11.0288C10.1925 10.7208 9.62638 10.25 8.81 9.57012L6.92 7.996C6.78621 7.88461 6.61366 7.83093 6.44029 7.84676C6.26693 7.8626 6.10695 7.94665 5.99556 8.08044C5.88417 8.21422 5.83049 8.38678 5.84632 8.56014C5.86216 8.73351 5.94621 8.89348 6.08 9.00488L8.0015 10.6061L8.03208 10.6316C8.79416 11.2656 9.41318 11.7807 9.96062 12.133C10.539 12.504 11.1016 12.7394 11.75 12.7394C12.3984 12.7394 12.961 12.5049 13.5385 12.133C14.0941 11.776 14.7224 11.2528 15.4985 10.6053L17.42 9.004C17.5536 8.89258 17.6375 8.73266 17.6533 8.55939Z" fill="white"/>
</svg>
