<svg width="24" height="24" viewBox="0 0 24 24" fill="none" xmlns="http://www.w3.org/2000/svg">
<rect width="24" height="24" rx="4" fill="white"/>
<path fill-rule="evenodd" clip-rule="evenodd" d="M12.8976 15.6452C12.6615 15.8724 12.3414 16 12.0078 16C11.6741 16 11.3541 15.8724 11.118 15.6452L6.36861 11.0709C6.13251 10.8433 5.99992 10.5347 6 10.2129C6.00008 9.89118 6.13282 9.58262 6.36903 9.35515C6.60523 9.12767 6.92555 8.99992 7.25952 9C7.59349 9.00008 7.91375 9.12797 8.14984 9.35555L12.0078 13.0726L15.8657 9.35555C16.1031 9.13446 16.4211 9.01204 16.7512 9.01465C17.0814 9.01726 17.3972 9.1447 17.6308 9.36952C17.8644 9.59434 17.9969 9.89855 17.9999 10.2166C18.003 10.5347 17.8762 10.8412 17.647 11.0701L12.8984 15.646L12.8976 15.6452Z" fill="#212121"/>
</svg>
