<svg width="25" height="24" viewBox="0 0 25 24" fill="none" xmlns="http://www.w3.org/2000/svg">
<path d="M4 0C1.79086 0 0 1.79086 0 4V20C0 22.2091 1.79086 24 4 24H20.0364C22.2456 24 24.0364 22.2091 24.0364 20V4C24.0364 1.79086 22.2456 0 20.0364 0H4ZM7.85761 4.56446C9.29062 4.56446 10.4528 5.72346 10.4528 7.1543C10.4528 8.58514 9.29062 9.7456 7.85761 9.7456C6.42459 9.7456 5.26237 8.58514 5.26237 7.1543C5.26237 5.72346 6.42459 4.56446 7.85761 4.56446ZM15.9455 4.56446C17.3786 4.56446 18.5393 5.72346 18.5393 7.1543C18.5393 8.58514 17.3786 9.7456 15.9455 9.7456C14.5125 9.7456 13.3503 8.58514 13.3503 7.1543C13.3503 5.72346 14.5125 4.56446 15.9455 4.56446ZM4.60673 16.5708C3.58476 14.6123 5.45706 12.7222 7.66619 12.7222H16.3702C18.5794 12.7222 20.4517 14.6123 19.4297 16.5708C18.0369 19.24 15.2407 21.063 12.0182 21.063C8.79572 21.063 5.99951 19.24 4.60673 16.5708Z" fill="white"/>
</svg>
