<svg width="80" height="75" viewBox="0 0 80 75" fill="none" xmlns="http://www.w3.org/2000/svg">
<path d="M44.9714 75L40 72.1154L51.4286 51.9231H68.5714C70.087 51.9231 71.5404 51.3153 72.612 50.2333C73.6837 49.1514 74.2857 47.6839 74.2857 46.1538V11.5385C74.2857 10.0084 73.6837 8.54094 72.612 7.459C71.5404 6.37706 70.087 5.76923 68.5714 5.76923H11.4286C9.91305 5.76923 8.4596 6.37706 7.38796 7.459C6.31632 8.54094 5.71429 10.0084 5.71429 11.5385V46.1538C5.71429 47.6839 6.31632 49.1514 7.38796 50.2333C8.4596 51.3153 9.91305 51.9231 11.4286 51.9231H37.1429V57.6923H11.4286C8.39753 57.6923 5.49062 56.4767 3.34735 54.3128C1.20408 52.1489 0 49.214 0 46.1538V11.5385C0 8.47827 1.20408 5.54342 3.34735 3.37954C5.49062 1.21566 8.39753 0 11.4286 0H68.5714C71.6025 0 74.5094 1.21566 76.6526 3.37954C78.7959 5.54342 80 8.47827 80 11.5385V46.1538C80 49.214 78.7959 52.1489 76.6526 54.3128C74.5094 56.4767 71.6025 57.6923 68.5714 57.6923H54.7429L44.9714 75Z" fill="white"/>
<path d="M17.1428 17.3076H62.8571V23.0768H17.1428V17.3076ZM17.1428 34.6153H45.7142V40.3845H17.1428V34.6153Z" fill="white"/>
</svg>
