<svg width="26" height="26" viewBox="0 0 26 26" fill="none" xmlns="http://www.w3.org/2000/svg">
<path d="M23 1H3C2.46957 1 1.96086 1.21071 1.58579 1.58579C1.21071 1.96086 1 2.46957 1 3V23C1 23.5304 1.21071 24.0391 1.58579 24.4142C1.96086 24.7893 2.46957 25 3 25H23C23.5304 25 24.0391 24.7893 24.4142 24.4142C24.7893 24.0391 25 23.5304 25 23V3C25 2.46957 24.7893 1.96086 24.4142 1.58579C24.0391 1.21071 23.5304 1 23 1Z" stroke="white" stroke-width="2" stroke-linecap="round" stroke-linejoin="round"/>
<path d="M1 7H25M19 1L15 7M11 1L7 7M10.6667 15.6667V11.6253L14.1667 13.6453L17.6667 15.6667L14.1667 17.6873L10.6667 19.708V15.6667Z" stroke="white" stroke-width="2" stroke-linecap="round" stroke-linejoin="round"/>
</svg>
