<svg width="32" height="32" viewBox="0 0 32 32" fill="none" xmlns="http://www.w3.org/2000/svg">
<path d="M16.0005 16.0011C16.0005 8.89207 26.6676 8.89207 26.6676 16.0011C26.6676 23.1102 16.0005 23.1102 16.0005 16.0011ZM5.3334 26.6682C5.333 25.9678 5.47068 25.2741 5.73855 24.6269C6.00642 23.9797 6.39923 23.3916 6.89453 22.8963C7.38983 22.401 7.97789 22.0082 8.62511 21.7403C9.27232 21.4724 9.96598 21.3348 10.6664 21.3352H15.9995V26.6682C15.9995 33.7773 5.3324 33.7773 5.3324 26.6682H5.3334ZM16.0005 0.00100085V10.6681H21.3335C28.4426 10.6681 28.4426 0.00100085 21.3335 0.00100085H16.0005ZM5.3334 5.33404C5.333 6.0345 5.47068 6.72816 5.73855 7.37538C6.00642 8.02259 6.39923 8.61066 6.89453 9.10595C7.38983 9.60125 7.97789 9.99406 8.62511 10.2619C9.27232 10.5298 9.96598 10.6675 10.6664 10.6671H15.9995V8.44837e-07H10.6664C9.96598 -0.000393519 9.27232 0.137281 8.62511 0.405151C7.97789 0.673022 7.38983 1.06584 6.89453 1.56113C6.39923 2.05643 6.00642 2.6445 5.73855 3.29171C5.47068 3.93892 5.333 4.63259 5.3334 5.33304V5.33404ZM5.3334 16.0011C5.333 16.7016 5.47068 17.3952 5.73855 18.0425C6.00642 18.6897 6.39923 19.2777 6.89453 19.773C7.38983 20.2683 7.97789 20.6611 8.62511 20.929C9.27232 21.1969 9.96598 21.3356 10.6664 21.3352H15.9995V10.6671H10.6664C9.96598 10.6667 9.27232 10.8044 8.62511 11.0722C7.97789 11.3401 7.38983 11.7329 6.89453 12.2282C6.39923 12.7235 6.00642 13.3116 5.73855 13.9588C5.47068 14.606 5.333 15.2997 5.3334 16.0001V16.0011Z" fill="white"/>
</svg>
