<svg width="32" height="32" viewBox="0 0 32 32" fill="none" xmlns="http://www.w3.org/2000/svg">
<path fill-rule="evenodd" clip-rule="evenodd" d="M4.60517e-07 15.9978C0.000103065 13.2372 0.714622 10.5236 2.07408 8.1208C3.43354 5.71805 5.39168 3.70792 7.75809 2.28587C10.1245 0.863829 12.8187 0.0782595 15.5786 0.00555095C18.3385 -0.0671576 21.0703 0.575469 23.5083 1.87095C25.9464 3.16642 28.0076 5.07066 29.4917 7.3985C30.9758 9.72635 31.8323 12.3986 31.9778 15.1554C32.1232 17.9121 31.5528 20.6596 30.322 23.1307C29.0911 25.6018 27.2417 27.7124 24.9536 29.2572L10.4683 8.97983C10.337 8.79592 10.1507 8.65844 9.93632 8.5872C9.72189 8.51596 9.49037 8.51465 9.27515 8.58346C9.05993 8.65227 8.87212 8.78764 8.73879 8.97005C8.60547 9.15247 8.53353 9.3725 8.53333 9.59843V25.5968H10.6667V12.9261L23.104 30.3366C20.6643 31.5454 17.9565 32.1116 15.2368 31.9818C12.5172 31.8519 9.87563 31.0303 7.56226 29.5945C5.24888 28.1588 3.34019 26.1565 2.01687 23.7772C0.693538 21.3979 -0.000652719 18.7203 4.60517e-07 15.9978ZM21.3333 21.3306V8.53187H23.4667V21.3306H21.3333Z" fill="white"/>
</svg>
