<svg width="33" height="32" viewBox="0 0 33 32" fill="none" xmlns="http://www.w3.org/2000/svg">
<g clip-path="url(#clip0_48_15)">
<path fill-rule="evenodd" clip-rule="evenodd" d="M12.8058 10.404C11.8853 10.1728 10.9635 10.247 9.99076 10.3985C9.99076 12.0998 9.98726 13.7553 10 15.411C10.0005 15.4958 10.1278 15.6433 10.2103 15.6545C11.271 15.7978 12.326 15.8093 13.318 15.3258C14.3443 14.8258 14.867 13.7803 14.7315 12.5528C14.6085 11.435 13.9468 10.6908 12.8058 10.404ZM31.9943 15.9908V0.82125C31.9943 0.29725 32 0.25 31.4913 0.25H1.11401C0.619263 0.25 0.494263 0.2975 0.494263 0.7965V31.1738C0.494263 31.6783 0.557263 31.679 1.04651 31.679C11.1853 31.6793 21.3543 31.6768 31.493 31.6883C31.8863 31.6888 31.9918 31.584 31.9908 31.1985C31.9773 26.1293 31.9943 21.0595 31.9943 15.9908ZM14.3323 17.4508C12.943 17.9463 11.4943 17.974 9.99426 17.8578V23.5H7.24426V23.1495C7.24426 18.4258 7.22251 13.7025 7.20926 8.979C7.20776 8.58675 7.27001 8.39725 7.71201 8.35225C9.79501 8.13925 11.8663 7.89975 13.9375 8.3855C16.164 8.90725 17.4478 10.3793 17.5453 12.413C17.666 14.9315 16.5593 16.6565 14.3323 17.4508ZM25.4098 20.6393C25.3038 22.082 24.4903 23.0293 23.156 23.4873C21.3705 24.1003 19.5948 23.958 17.8498 23.2645C17.564 23.1508 17.5088 23.0068 17.603 22.7155C17.7748 22.184 17.9005 21.6375 18.033 21.144C18.7708 21.3605 19.4723 21.6308 20.199 21.7585C20.7123 21.8488 21.267 21.7958 21.7888 21.714C22.2565 21.6405 22.593 21.323 22.6698 20.821C22.7478 20.3108 22.594 19.8688 22.1435 19.5973C21.7855 19.3818 21.391 19.2275 21.0128 19.0468C20.4045 18.756 19.7563 18.528 19.1953 18.1643C16.9875 16.7325 17.7063 14.0685 19.1795 13.0653C19.9678 12.5288 20.84 12.2908 21.7738 12.258C22.872 12.2195 23.9295 12.409 24.9683 12.9138L24.4195 14.861C23.9845 14.707 23.5795 14.507 23.152 14.4275C22.6448 14.333 22.1128 14.2803 21.6008 14.322C20.9143 14.3783 20.5123 14.852 20.5123 15.4395C20.5123 15.7875 20.6443 16.082 20.9345 16.2508C21.351 16.493 21.793 16.6928 22.231 16.8955C22.705 17.1148 23.2055 17.2833 23.6618 17.5335C24.8793 18.201 25.513 19.2335 25.4098 20.6393Z" fill="white"/>
</g>
<defs>
<clipPath id="clip0_48_15">
<rect x="0.244263" width="32" height="32" rx="4" fill="white"/>
</clipPath>
</defs>
</svg>
