<svg width="35" height="32" viewBox="0 0 35 32" fill="none" xmlns="http://www.w3.org/2000/svg">
<path d="M17.4545 12.8556C19.1269 12.8556 20.4908 14.2531 20.4908 16C20.4908 17.6637 19.1269 19.0779 17.4545 19.0779C15.7822 19.0779 14.4183 17.6637 14.4183 16C14.4183 14.2531 15.7822 12.8556 17.4545 12.8556ZM9.93691 29.3097C10.9598 29.9419 13.2005 28.977 15.7822 26.4814C14.9378 25.4998 14.1098 24.435 13.3304 23.3203C12.022 23.192 10.7212 22.9921 9.43357 22.7214C8.6055 26.2818 8.914 28.7274 9.93691 29.3097ZM11.0897 19.76L10.6189 18.9115C10.4403 19.394 10.2616 19.8765 10.148 20.3423C10.5864 20.4421 11.0735 20.5253 11.5768 20.6085L11.0897 19.76ZM21.7086 18.4956L23.0238 16L21.7086 13.5044C21.2215 12.6227 20.7019 11.8407 20.231 11.0588C19.3542 11.0089 18.4288 11.0089 17.4545 11.0089C16.4803 11.0089 15.5548 11.0089 14.6781 11.0588C14.2072 11.8407 13.6876 12.6227 13.2005 13.5044L11.8853 16L13.2005 18.4956C13.6876 19.3773 14.2072 20.1593 14.6781 20.9412C15.5548 20.9911 16.4803 20.9911 17.4545 20.9911C18.4288 20.9911 19.3542 20.9911 20.231 20.9412C20.7019 20.1593 21.2215 19.3773 21.7086 18.4956ZM17.4545 7.31541C17.146 7.68143 16.8213 8.06408 16.4966 8.51328H18.4125C18.0878 8.06408 17.763 7.68143 17.4545 7.31541ZM17.4545 24.6846C17.763 24.3186 18.0878 23.9359 18.4125 23.4867H16.4966C16.8213 23.9359 17.146 24.3186 17.4545 24.6846ZM24.9559 2.69028C23.9493 2.05807 21.7086 3.02302 19.1269 5.5186C19.9712 6.50019 20.7993 7.56497 21.5787 8.67966C22.9101 8.81275 24.2253 9.0124 25.4755 9.27859C26.3036 5.71824 25.9951 3.27258 24.9559 2.69028ZM23.8194 12.24L24.2902 13.0885C24.4688 12.606 24.6474 12.1235 24.7611 11.6577C24.3227 11.5579 23.8356 11.4747 23.3323 11.3915L23.8194 12.24ZM26.1737 0.510815C28.5605 1.90834 28.8203 5.58514 27.8136 9.87753C31.9378 11.1253 34.9091 13.1883 34.9091 16C34.9091 18.8117 31.9378 20.8747 27.8136 22.1225C28.8203 26.4149 28.5605 30.0917 26.1737 31.4892C23.8031 32.8867 20.572 31.2895 17.4545 28.2449C14.3371 31.2895 11.106 32.8867 8.71915 31.4892C6.34858 30.0917 6.08879 26.4149 7.09548 22.1225C2.97133 20.8747 0 18.8117 0 16C0 13.1883 2.97133 11.1253 7.09548 9.87753C6.08879 5.58514 6.34858 1.90834 8.71915 0.510815C11.106 -0.886705 14.3371 0.710461 17.4545 3.75506C20.572 0.710461 23.8031 -0.886705 26.1737 0.510815ZM25.7028 16C26.2549 17.2478 26.742 18.4956 27.1479 19.76C30.5576 18.7119 32.4736 17.2145 32.4736 16C32.4736 14.7855 30.5576 13.2881 27.1479 12.24C26.742 13.5044 26.2549 14.7522 25.7028 16ZM9.20626 16C8.65421 14.7522 8.1671 13.5044 7.76118 12.24C4.35146 13.2881 2.43552 14.7855 2.43552 16C2.43552 17.2145 4.35146 18.7119 7.76118 19.76C8.1671 18.4956 8.65421 17.2478 9.20626 16ZM23.8194 19.76L23.3323 20.6085C23.8356 20.5253 24.3227 20.4421 24.7611 20.3423C24.6474 19.8765 24.4688 19.394 24.2902 18.9115L23.8194 19.76ZM19.1269 26.4814C21.7086 28.977 23.9493 29.9419 24.9559 29.3097C25.9951 28.7274 26.3036 26.2818 25.4755 22.7214C24.2253 22.9876 22.9101 23.1872 21.5787 23.3203C20.7993 24.435 19.9712 25.4998 19.1269 26.4814ZM11.0897 12.24L11.5768 11.3915C11.0735 11.4747 10.5864 11.5579 10.148 11.6577C10.2616 12.1235 10.4403 12.606 10.6189 13.0885L11.0897 12.24ZM15.7822 5.5186C13.2005 3.02302 10.9598 2.05807 9.93691 2.69028C8.914 3.27258 8.6055 5.71824 9.43357 9.27859C10.7212 9.00789 12.022 8.80796 13.3304 8.67966C14.1098 7.56497 14.9378 6.50019 15.7822 5.5186Z" fill="white"/>
</svg>
