<svg width="32" height="32" viewBox="0 0 32 32" fill="none" xmlns="http://www.w3.org/2000/svg">
<path fill-rule="evenodd" clip-rule="evenodd" d="M24.8891 2.69649C22.2579 0.938384 19.1645 0 16 0C11.7565 0 7.68687 1.68571 4.68629 4.68629C1.68571 7.68687 0 11.7565 0 16C0 19.1645 0.938384 22.2579 2.69649 24.8891C4.45459 27.5203 6.95345 29.5711 9.87706 30.7821C12.8007 31.9931 16.0177 32.3099 19.1214 31.6926C22.2251 31.0752 25.0761 29.5513 27.3137 27.3137C29.5513 25.0761 31.0752 22.2251 31.6926 19.1214C32.3099 16.0177 31.9931 12.8007 30.7821 9.87706C29.5711 6.95345 27.5203 4.45459 24.8891 2.69649ZM16.1404 4.6559C20.5998 3.07647 25.3118 4.00676 26.0364 6.8479C26.7484 9.64219 24.3233 12.985 21.2135 14.1839C19.3226 15.0083 17.2201 15.2162 15.2044 14.7782C14.8142 14.671 14.4494 14.4871 14.1313 14.237C13.8131 13.987 13.5481 13.676 13.3518 13.3222L13.3488 13.3142C13.289 13.1579 13.1912 12.9024 13.3518 12.8136C13.4524 12.7588 13.4924 12.7713 13.7621 13.0685C14.2056 13.4395 14.7269 13.7059 15.2874 13.848C15.8479 13.9901 16.4332 14.0041 16.9998 13.889C22.1267 13.3142 25.2147 9.33133 24.2387 7.18733C23.5553 5.68676 19.6033 5.00904 14.6661 7.46962C8.64441 10.473 8.31755 12.9485 8.26612 13.889C8.16892 15.6774 9.73243 16.88 11.3027 18.0878C12.0033 18.6266 12.7052 19.1665 13.2615 19.7599C13.3033 19.805 13.3445 19.8508 13.385 19.897C14.1943 19.6458 15.0396 19.53 15.8867 19.5542C18.8033 19.505 20.4501 21.4319 20.3827 23.1462C20.3551 23.5875 20.1944 24.0102 19.9219 24.3584C19.6493 24.7067 19.2776 24.9642 18.8558 25.097C18.6878 25.1256 18.5975 25.1302 18.5735 24.9988C18.5564 24.9073 18.617 24.8662 18.8135 24.7439C19.0435 24.6105 19.242 24.4292 19.3956 24.2123C19.5493 23.9954 19.6544 23.7479 19.7038 23.4868C19.809 22.753 19.2581 21.001 16.4513 20.673C15.6334 20.5627 14.802 20.6104 14.0021 20.8136C14.2987 21.6163 14.4043 22.477 14.3107 23.3276C14.2171 24.1781 13.9268 24.9952 13.4627 25.7142C12.9012 26.6016 12.0759 27.2909 11.1028 27.6854C10.1296 28.08 9.05734 28.16 8.03641 27.9142C7.35641 27.7256 6.33126 26.3222 7.21584 24.3656C8.05698 22.5142 11.641 20.6982 12.1301 20.457V20.449C11.7139 20.0907 11.1484 19.7011 10.5255 19.2721C8.66329 17.9893 6.28861 16.3534 5.86041 14.1439C5.69926 13.3085 6.09126 11.3085 8.54726 9.01133C10.7673 7.07441 13.3476 5.59436 16.1404 4.6559ZM12.7873 23.7199C13.0359 22.944 13.0474 22.1116 12.8204 21.329L12.6753 21.409C11.6307 21.9239 10.6759 22.6039 9.84783 23.4228C8.77012 24.5622 8.46955 25.9919 9.07069 26.3405C9.62726 26.6639 10.9267 26.2799 11.8558 25.2662C12.1538 24.9451 12.4029 24.582 12.5953 24.1885C12.6326 24.1153 12.6673 24.0391 12.6993 23.9599C12.7313 23.8807 12.7606 23.8007 12.7873 23.7199Z" fill="white"/>
</svg>
