<svg width="33" height="32" viewBox="0 0 33 32" fill="none" xmlns="http://www.w3.org/2000/svg">
<path fill-rule="evenodd" clip-rule="evenodd" d="M4.90906 0C2.69989 0 0.909058 1.79089 0.909058 4V28C0.909058 30.2091 2.69989 32 4.90906 32H28.9091C31.1182 32 32.9091 30.2091 32.9091 28V4C32.9091 1.79089 31.1182 0 28.9091 0H4.90906ZM10.9091 13.6666C11.7131 10.5516 13.7051 9 16.9091 9C19.889 9 21.2232 10.3237 22.3934 11.4849L22.4171 11.5083L22.4544 11.5446C23.1712 12.2418 23.8126 12.8655 24.709 13.0834C26.3051 13.4684 27.709 12.885 28.9091 11.3334C28.105 14.4484 26.113 16 22.9091 16C19.9293 16 18.5951 14.6764 17.4249 13.5153L17.4011 13.4917C16.681 12.78 16.0211 12.1383 15.1091 11.9166C13.5131 11.5316 12.1091 12.115 10.9091 13.6666ZM4.90906 20.6666C5.71307 17.5516 7.70508 16 10.9091 16C13.8889 16 15.223 17.3236 16.3932 18.4847L16.4171 18.5083L16.4544 18.5446C17.1712 19.2418 17.8126 19.8655 18.709 20.0834C20.3051 20.4684 21.709 19.885 22.9091 18.3334C22.105 21.4484 20.113 23 16.9091 23C13.9293 23 12.5951 21.6764 11.4249 20.5153L11.4011 20.4917L11.3637 20.4554C10.6469 19.7582 10.0055 19.1345 9.10907 18.9166C7.51306 18.5316 6.10907 19.115 4.90906 20.6666Z" fill="white"/>
</svg>
